<svg width="224" height="36" viewBox="0 0 224 36" fill="none" xmlns="http://www.w3.org/2000/svg">
<path d="M10.5876 3.98023e-06H0V10.5876C0 11.4218 0.164302 12.2478 0.483524 13.0184C0.802746 13.7891 1.27064 14.4894 1.86048 15.0792C2.45033 15.6691 3.15058 16.1369 3.92125 16.4562C4.69192 16.7754 5.51792 16.9397 6.35209 16.9397H16.9468V6.35114C16.9467 5.51646 16.782 4.68998 16.4623 3.91895C16.1426 3.14793 15.6741 2.44747 15.0835 1.85764C14.4929 1.2678 13.7918 0.80014 13.0204 0.481395C12.249 0.16265 11.4223 -0.00093038 10.5876 3.98023e-06ZM12.7094 12.7042H6.35209C5.79124 12.7042 5.25336 12.4814 4.85679 12.0848C4.46021 11.6882 4.23741 11.1504 4.23741 10.5895V4.22888H10.5895C11.1511 4.23076 11.689 4.45521 12.0854 4.85302C12.4818 5.25083 12.7043 5.78956 12.7042 6.35114L12.7094 12.7042Z" fill="white"/>
<path d="M25.4032 2.98953e-06C24.5685 -0.000806781 23.7418 0.162897 22.9704 0.481757C22.1991 0.800617 21.4981 1.26838 20.9076 1.85831C20.3171 2.44823 19.8486 3.14876 19.529 3.91983C19.2094 4.6909 19.0449 5.5174 19.0449 6.35209V16.9383H29.6562C31.3409 16.9383 32.9566 16.269 34.1478 15.0778C35.3391 13.8865 36.0083 12.2709 36.0083 10.5862V2.98953e-06H25.4032ZM31.7553 10.5876C31.7553 10.8653 31.7006 11.1403 31.5943 11.3969C31.488 11.6534 31.3323 11.8865 31.1359 12.0829C30.9395 12.2793 30.7064 12.435 30.4498 12.5413C30.1933 12.6476 29.9183 12.7023 29.6406 12.7023H23.298V6.35019C23.2981 5.79041 23.5194 5.25334 23.9137 4.85601C24.308 4.45867 24.8434 4.23326 25.4032 4.22888H31.7553V10.5876Z" fill="white"/>
<path d="M29.6561 19.0603H19.0614V29.6479C19.0614 31.3311 19.7295 32.9455 20.9189 34.1365C22.1083 35.3275 23.7218 35.9977 25.405 36H36.0073V25.4114C36.007 23.7271 35.3378 22.1118 34.1468 20.9208C32.9558 19.7298 31.3405 19.0606 29.6561 19.0603ZM31.7708 31.7645H25.405C25.1267 31.7654 24.8509 31.7114 24.5935 31.6056C24.3361 31.4997 24.1022 31.3441 23.9051 31.1476C23.7079 30.9512 23.5515 30.7177 23.4448 30.4607C23.3381 30.2037 23.2832 29.9281 23.2832 29.6498V23.2977H29.6353C30.1968 23.2977 30.7354 23.5203 31.1331 23.9167C31.5308 24.313 31.7552 24.8509 31.757 25.4124L31.7708 31.7645Z" fill="white"/>
<path d="M0 25.4117V35.9988H10.5876C11.4223 35.9996 12.249 35.8359 13.0203 35.5171C13.7917 35.1982 14.4927 34.7304 15.0832 34.1405C15.6737 33.5506 16.1421 32.8501 16.4617 32.079C16.7813 31.3079 16.9459 30.4814 16.9459 29.6467V19.0605H6.35209C4.66757 19.0605 3.05204 19.7297 1.86082 20.9207C0.669599 22.1117 0.00025142 23.7272 0 25.4117ZM12.7042 29.6481C12.7042 29.9265 12.6492 30.202 12.5425 30.459C12.4358 30.7161 12.2794 30.9495 12.0823 31.146C11.8852 31.3424 11.6512 31.498 11.3938 31.6039C11.1364 31.7098 10.8607 31.7638 10.5824 31.7628H4.23646V25.4107C4.23659 25.133 4.29141 24.8581 4.3978 24.6016C4.50418 24.345 4.66005 24.112 4.85651 23.9157C5.05296 23.7194 5.28615 23.5638 5.54276 23.4576C5.79938 23.3515 6.07438 23.2969 6.35209 23.297H12.7042V29.6481Z" fill="white"/>
<path d="M48.7159 2.14455H53.707V29.349H61.9259V33.8841H48.7159V2.14455Z" fill="white"/>
<path d="M69.5905 2.14455V26.6219C69.5905 28.8636 70.586 29.7079 72.1759 29.7079C73.7658 29.7079 74.7613 28.8935 74.7613 26.6219V2.14455H79.4812V26.3081C79.4812 31.3888 76.9409 34.2956 72.0095 34.2956C67.0781 34.2956 64.5396 31.3888 64.5396 26.3081V2.14455H69.5905Z" fill="white"/>
<path d="M98.0878 22.041V26.2623C98.0878 31.343 95.5475 34.2498 90.6161 34.2498C85.6847 34.2498 83.1462 31.342 83.1462 26.2627V9.73545C83.1462 4.65473 85.6865 1.74794 90.618 1.74794C95.5494 1.74794 98.0878 4.65378 98.0878 9.73545V12.8214H93.3949V9.41405C93.3949 7.17234 92.3937 6.28541 90.8024 6.28541C89.211 6.28541 88.1648 7.15195 88.1648 9.41405V26.5988C88.1648 28.8405 89.166 29.6848 90.7502 29.6848C92.3344 29.6848 93.3953 28.8481 93.3953 26.5765V22.041H98.0878Z" fill="white"/>
<path d="M107.668 21.2199L106.099 24.1262V33.8847H101.1V2.14468H106.099V15.9524L112.659 2.14468H117.658L110.709 16.3411L117.657 33.9525H112.524L107.668 21.2199Z" fill="white"/>
<path d="M124.599 23.3567L118.293 2.14448H123.523L127.341 16.6249L131.137 2.14448H135.904L129.59 23.3941V33.8845H124.599V23.3567Z" fill="white"/>
<path d="M145.392 16.1834H152.378V26.2629C152.378 31.3436 149.837 34.2504 144.906 34.2504C139.974 34.2504 137.435 31.3422 137.435 26.2629V9.7356C137.435 4.65393 139.975 1.74808 144.905 1.74808C149.835 1.74808 152.377 4.6544 152.377 9.7356V12.8216H147.662V9.4142C147.662 7.17248 146.661 6.28556 145.07 6.28556C143.479 6.28556 142.484 7.1521 142.484 9.4142V26.599C142.484 28.8407 143.486 29.6849 145.07 29.6849C146.654 29.6849 147.662 28.8705 147.662 26.599V20.719H145.422L145.392 16.1834Z" fill="white"/>
<path d="M166.515 33.8846C166.239 33.0702 166.059 32.5696 166.059 29.9842V24.9855C166.059 22.0417 165.058 20.951 162.789 20.951H161.063V33.8846H156.07V2.14455H163.631C168.801 2.14455 171.026 4.55028 171.026 9.45182V11.9571C171.026 15.2223 169.98 17.3611 167.761 18.3978C170.256 19.444 171.071 21.8498 171.071 25.1671V30.0653C170.98 31.3745 171.166 32.6882 171.617 33.9206L166.515 33.8846ZM161.061 6.62751V16.4083H163.018C164.879 16.4083 166.005 15.5939 166.005 13.0535V9.91542C166.005 7.67371 165.258 6.65026 163.457 6.65026L161.061 6.62751Z" fill="white"/>
<path d="M190.476 33.8847H185.44L184.551 28.1219H178.425L177.565 33.8824H172.978L178.088 2.14468H185.396L190.476 33.8847ZM179.083 23.8129H183.894L181.489 7.74874L179.083 23.8129Z" fill="white"/>
<path d="M199.496 1.74794C204.352 1.74794 206.848 4.65425 206.848 9.73545V10.7366H202.133V9.41405C202.133 7.17234 201.222 6.28541 199.63 6.28541C198.039 6.28541 197.135 7.15195 197.135 9.41405C197.135 15.952 206.893 17.1773 206.893 26.2627C206.893 31.3435 204.353 34.2502 199.421 34.2502C194.49 34.2502 191.949 31.342 191.949 26.2627V24.305H196.671V26.5467C196.671 28.7884 197.667 29.6327 199.257 29.6327C200.847 29.6327 201.842 28.8183 201.842 26.5467C201.842 20.0088 192.084 18.7834 192.084 9.70559C192.158 4.65378 194.654 1.74794 199.496 1.74794Z" fill="white"/>
<path d="M216.486 1.74794C221.343 1.74794 223.846 4.65425 223.846 9.73545V10.7366H219.124V9.41405C219.124 7.17234 218.212 6.28541 216.628 6.28541C215.045 6.28541 214.125 7.15195 214.125 9.41405C214.125 15.952 223.891 17.1773 223.891 26.2627C223.891 31.3435 221.343 34.2502 216.419 34.2502C211.495 34.2502 208.947 31.342 208.947 26.2627V24.305H213.692V26.5467C213.692 28.7884 214.687 29.6327 216.277 29.6327C217.867 29.6327 218.922 28.8481 218.922 26.5765C218.922 20.0761 209.134 18.8132 209.134 9.73545C209.134 4.65378 211.63 1.74794 216.486 1.74794Z" fill="white"/>
</svg>
