<svg width="24" height="14" viewBox="0 0 24 14" fill="none" xmlns="http://www.w3.org/2000/svg">
<path fill-rule="evenodd" clip-rule="evenodd" d="M23.4535 1.24067C23.6248 0.703864 23.4535 0.313462 22.6949 0.313462H20.1743C19.538 0.313462 19.2444 0.655065 19.0731 1.02107C19.0731 1.02107 17.7761 4.14429 15.9652 6.1695C15.3778 6.7551 15.1087 6.95031 14.7905 6.95031C14.6192 6.95031 14.399 6.75511 14.399 6.2183V1.21627C14.399 0.581863 14.2032 0.289062 13.6648 0.289062H9.70042C9.30887 0.289062 9.06416 0.581863 9.06416 0.874665C9.06416 1.48467 9.9696 1.63107 10.0675 3.33908V7.04791C10.0675 7.85311 9.92066 7.99951 9.60253 7.99951C8.74602 7.99951 6.66593 4.85189 5.41788 1.26507C5.17316 0.557464 4.92845 0.289062 4.29218 0.289062H1.74713C1.01298 0.289062 0.890625 0.630663 0.890625 0.996666C0.890625 1.65547 1.74713 4.97389 4.8795 9.36592C6.95959 12.3671 9.92066 13.9776 12.5881 13.9776C14.2032 13.9776 14.399 13.6115 14.399 13.0015V10.7323C14.399 10.0003 14.5458 9.87833 15.0597 9.87833C15.4268 9.87833 16.0875 10.0735 17.5803 11.5131C19.2933 13.2211 19.587 14.002 20.5414 14.002H23.0619C23.7961 14.002 24.1387 13.636 23.9429 12.9283C23.7227 12.2207 22.8906 11.1959 21.8139 9.97593C21.2266 9.29272 20.3456 8.53632 20.0764 8.17032C19.7093 7.68231 19.8072 7.48711 20.0764 7.04791C20.0519 7.04791 23.1353 2.70468 23.4535 1.24067Z" fill="white"/>
</svg>
