<svg width="18" height="14" viewBox="0 0 18 14" fill="none" xmlns="http://www.w3.org/2000/svg">
<path fill-rule="evenodd" clip-rule="evenodd" d="M17.1 1.05C17.6276 1.65453 17.8138 3.02272 17.8138 3.02272C17.8138 3.02272 18 4.64546 18 6.26816V7.76363C18 9.35454 17.8138 10.9773 17.8138 10.9773C17.8138 10.9773 17.6276 12.3455 17.1 12.95C16.4507 13.6762 15.7172 13.7406 15.3533 13.7725C15.3345 13.7742 15.3167 13.7757 15.3 13.7773C12.7862 14 9 14 9 14C9 14 4.31378 13.9682 2.88622 13.8091C2.81036 13.7912 2.71695 13.7777 2.61073 13.7624C2.152 13.6964 1.45439 13.5959 0.9 12.95C0.372445 12.3455 0.186223 10.9773 0.186223 10.9773C0.186223 10.9773 0 9.3864 0 7.76366V6.2682C0 4.64546 0.186223 3.02272 0.186223 3.02272C0.186223 3.02272 0.341367 1.65456 0.9 1.05C1.54931 0.323792 2.28281 0.25942 2.64675 0.227481C2.6655 0.225835 2.68327 0.224276 2.7 0.222716C5.21378 0.0318269 9 0 9 0C9 0 12.7862 0.0318269 15.3 0.222716C15.3259 0.225133 15.3543 0.227366 15.385 0.229777C15.7587 0.259129 16.4691 0.314941 17.1 1.05ZM6.82759 10.6909V3.78635L12.7241 7.3182L6.82759 10.6909Z" fill="white"/>
</svg>
