<svg width="32" height="32" viewBox="0 0 32 32" fill="none" xmlns="http://www.w3.org/2000/svg">
<path d="M9.40928 3.53795e-06H0V9.41114C0 10.1526 0.146016 10.8868 0.429711 11.5719C0.713407 12.2569 1.12923 12.8793 1.65343 13.4036C2.17763 13.928 2.79994 14.3439 3.48484 14.6276C4.16975 14.9114 4.90382 15.0574 5.64515 15.0574H15.0608V5.64542C15.0606 4.90348 14.9143 4.16884 14.6302 3.48349C14.3461 2.79814 13.9297 2.17552 13.4048 1.65122C12.8799 1.12692 12.2569 0.71123 11.5713 0.427904C10.8858 0.144577 10.1511 -0.000826999 9.40928 3.53795e-06ZM11.2949 11.2925H5.64515C5.14672 11.2925 4.66871 11.0945 4.31626 10.742C3.96382 10.3895 3.76582 9.91135 3.76582 9.41283V3.75898H9.41097C9.91005 3.76065 10.3881 3.96015 10.7404 4.31376C11.0927 4.66737 11.2904 5.14624 11.2903 5.64542L11.2949 11.2925Z" fill="white"/>
<path d="M22.5725 2.65734e-06C21.8307 -0.000717134 21.096 0.144797 20.4105 0.428225C19.725 0.711654 19.102 1.12744 18.5772 1.65182C18.0525 2.17619 17.6361 2.79887 17.3521 3.48427C17.0681 4.16966 16.9219 4.90433 16.9219 5.64626V15.0561H26.3522C27.8494 15.0561 29.2853 14.4613 30.3439 13.4024C31.4026 12.3435 31.9974 10.9074 31.9974 9.40988V2.65734e-06H22.5725ZM28.2176 9.41114C28.2176 9.65799 28.169 9.90241 28.0746 10.1305C27.9801 10.3585 27.8417 10.5657 27.6672 10.7403C27.4927 10.9148 27.2855 11.0533 27.0575 11.1478C26.8295 11.2422 26.5851 11.2908 26.3383 11.2908H20.7016V5.64458C20.7017 5.14699 20.8984 4.66961 21.2488 4.31642C21.5992 3.96323 22.075 3.76287 22.5725 3.75898H28.2176V9.41114Z" fill="white"/>
<path d="M26.3531 16.9453H16.9375V26.3564C16.9375 27.8526 17.5312 29.2876 18.5882 30.3463C19.6453 31.4049 21.0792 32.0007 22.5751 32.0027H31.9974V22.5907C31.9972 21.0935 31.4024 19.6577 30.344 18.5991C29.2855 17.5404 27.85 16.9455 26.3531 16.9453ZM28.2324 28.2378H22.5751C22.3277 28.2387 22.0827 28.1907 21.8539 28.0966C21.6252 28.0025 21.4173 27.8642 21.2421 27.6895C21.0669 27.5149 20.9279 27.3074 20.8331 27.0789C20.7382 26.8505 20.6894 26.6055 20.6894 26.3581V20.7119H26.3346C26.8336 20.7119 27.3122 20.9097 27.6657 21.262C28.0191 21.6144 28.2185 22.0925 28.2202 22.5916L28.2324 28.2378Z" fill="white"/>
<path d="M0 22.5907V32.0014H9.40928C10.1511 32.0022 10.8857 31.8567 11.5713 31.5732C12.2568 31.2898 12.8798 30.874 13.4045 30.3496C13.9293 29.8253 14.3456 29.2026 14.6297 28.5172C14.9137 27.8318 15.0599 27.0971 15.0599 26.3552V16.9453H5.64515C4.14811 16.9453 2.71237 17.5401 1.65372 18.5988C0.595077 19.6575 0.000223439 21.0934 0 22.5907H0ZM11.2903 26.3564C11.2903 26.6038 11.2415 26.8488 11.1466 27.0772C11.0518 27.3057 10.9128 27.5132 10.7376 27.6878C10.5624 27.8625 10.3545 28.0008 10.1258 28.0949C9.89704 28.189 9.65198 28.237 9.40465 28.2361H3.76498V22.5899C3.76509 22.343 3.81381 22.0986 3.90836 21.8706C4.0029 21.6426 4.14143 21.4355 4.31602 21.261C4.49061 21.0865 4.69784 20.9482 4.9259 20.8538C5.15395 20.7594 5.39835 20.7109 5.64515 20.711H11.2903V26.3564Z" fill="white"/>
</svg>
