<svg width="203" height="76" viewBox="0 0 203 76" fill="none" xmlns="http://www.w3.org/2000/svg">
<path d="M9.55242 3.56838e-06H0V9.49209C0 10.2399 0.148237 10.9805 0.436248 11.6714C0.724259 12.3623 1.1464 12.9901 1.67858 13.5189C2.21075 14.0478 2.84254 14.4672 3.53786 14.7534C4.23318 15.0396 4.97841 15.1869 5.73102 15.1869H15.2899V5.69398C15.2897 4.94566 15.1412 4.2047 14.8527 3.51345C14.5643 2.82221 14.1416 2.19423 13.6087 1.66542C13.0759 1.13662 12.4434 0.717348 11.7474 0.431584C11.0514 0.145821 10.3055 -0.000834112 9.55242 3.56838e-06V3.56838e-06ZM11.4668 11.3897H5.73102C5.22501 11.3897 4.73973 11.1899 4.38192 10.8344C4.02412 10.4788 3.82311 9.99661 3.82311 9.49379V3.79131H9.55413C10.0608 3.793 10.5461 3.99422 10.9038 4.35087C11.2614 4.70752 11.4622 5.1905 11.462 5.69398L11.4668 11.3897Z" fill="white"/>
<path d="M22.9202 2.6802e-06C22.1671 -0.000723302 21.4213 0.146042 20.7253 0.431909C20.0293 0.717776 19.3969 1.13714 18.8641 1.66602C18.3314 2.19491 17.9087 2.82295 17.6204 3.51424C17.332 4.20553 17.1836 4.94651 17.1836 5.69483V15.1856H26.7574C28.2774 15.1856 29.7351 14.5857 30.8098 13.5177C31.8846 12.4497 32.4884 11.0012 32.4884 9.49082V2.6802e-06H22.9202ZM28.6512 9.49209C28.6512 9.74106 28.6019 9.98759 28.506 10.2176C28.4101 10.4476 28.2696 10.6566 28.0924 10.8327C27.9152 11.0087 27.7049 11.1484 27.4734 11.2436C27.2419 11.3389 26.9938 11.388 26.7433 11.388H21.0208V5.69313C21.0209 5.19126 21.2206 4.70977 21.5764 4.35355C21.9321 3.99732 22.4151 3.79524 22.9202 3.79131H28.6512V9.49209Z" fill="white"/>
<path d="M26.7581 17.0859H17.1992V26.578C17.1992 28.0871 17.802 29.5344 18.8751 30.6022C19.9482 31.6699 21.4039 32.2708 22.9225 32.2729H32.4882V22.7799C32.488 21.2698 31.8842 19.8217 30.8096 18.7539C29.7351 17.6861 28.2777 17.0862 26.7581 17.0859V17.0859ZM28.666 28.4756H22.9225C22.6715 28.4764 22.4227 28.428 22.1904 28.3331C21.9582 28.2382 21.7471 28.0987 21.5693 27.9226C21.3914 27.7464 21.2503 27.5372 21.1541 27.3067C21.0578 27.0763 21.0082 26.8292 21.0082 26.5797V20.8849H26.7392C27.2458 20.8849 27.7318 21.0844 28.0906 21.4398C28.4494 21.7952 28.6519 22.2774 28.6536 22.7808L28.666 28.4756Z" fill="white"/>
<path d="M0 22.7799V32.2716H9.55242C10.3055 32.2723 11.0513 32.1255 11.7473 31.8397C12.4433 31.5538 13.0757 31.1344 13.6085 30.6056C14.1412 30.0767 14.5639 29.4486 14.8522 28.7573C15.1406 28.0661 15.289 27.3251 15.289 26.5768V17.0859H5.73102C4.21121 17.0859 2.75363 17.6858 1.67888 18.7536C0.60413 19.8214 0.000226838 21.2697 0 22.7799H0ZM11.462 26.578C11.462 26.8275 11.4125 27.0746 11.3162 27.305C11.2199 27.5355 11.0788 27.7447 10.901 27.9209C10.7231 28.097 10.512 28.2365 10.2798 28.3314C10.0476 28.4263 9.7988 28.4747 9.54771 28.4739H3.82225V22.7791C3.82236 22.5301 3.87182 22.2836 3.96781 22.0536C4.0638 21.8236 4.20443 21.6147 4.38167 21.4387C4.55892 21.2628 4.76931 21.1232 5.00083 21.028C5.23235 20.9329 5.48047 20.8839 5.73102 20.884H11.462V26.578Z" fill="white"/>
<path d="M43.9531 1.92188H48.4563V26.3115H55.8715V30.3773H43.9531V1.92188Z" fill="white"/>
<path d="M62.7875 1.92188V23.8665C62.7875 25.8763 63.6856 26.6332 65.1201 26.6332C66.5546 26.6332 67.4527 25.903 67.4527 23.8665V1.92188H71.7112V23.5852C71.7112 28.1402 69.4192 30.7462 64.97 30.7462C60.5207 30.7462 58.2305 28.1402 58.2305 23.5852V1.92188H62.7875Z" fill="white"/>
<path d="M88.4964 19.7636V23.5481C88.4964 28.1031 86.2044 30.7091 81.7551 30.7091C77.3059 30.7091 75.0156 28.1023 75.0156 23.5485V8.73135C75.0156 4.17633 77.3076 1.57031 81.7568 1.57031C86.2061 1.57031 88.4964 4.17548 88.4964 8.73135V11.498H84.2622V8.4432C84.2622 6.43344 83.359 5.63829 81.9232 5.63829C80.4875 5.63829 79.5436 6.41517 79.5436 8.4432V23.8498C79.5436 25.8596 80.4468 26.6165 81.8762 26.6165C83.3055 26.6165 84.2627 25.8664 84.2627 23.8299V19.7636H88.4964Z" fill="white"/>
<path d="M97.1405 19.0234L95.7248 21.629V30.3777H91.2148V1.92188H95.7248V14.3009L101.644 1.92188H106.154L99.8841 14.6494L106.153 30.4385H101.522L97.1405 19.0234Z" fill="white"/>
<path d="M112.416 20.9392L106.727 1.92188H111.445L114.89 14.904L118.315 1.92188H122.616L116.919 20.9728V30.3777H112.416V20.9392Z" fill="white"/>
<path d="M131.179 14.512H137.482V23.5485C137.482 28.1035 135.19 30.7096 130.741 30.7096C126.292 30.7096 124 28.1023 124 23.5485V8.73135C124 4.17548 126.292 1.57031 130.74 1.57031C135.188 1.57031 137.482 4.17591 137.482 8.73135V11.498H133.228V8.4432C133.228 6.43344 132.325 5.63829 130.889 5.63829C129.453 5.63829 128.556 6.41517 128.556 8.4432V23.8498C128.556 25.8596 129.459 26.6165 130.889 26.6165C132.318 26.6165 133.228 25.8864 133.228 23.8498V18.5783H131.207L131.179 14.512Z" fill="white"/>
<path d="M150.233 30.3777C149.983 29.6476 149.822 29.1988 149.822 26.8809V22.3995C149.822 19.7603 148.918 18.7824 146.871 18.7824H145.313V30.3777H140.809V1.92188H147.631C152.295 1.92188 154.303 4.07869 154.303 8.47305V10.7191C154.303 13.6464 153.359 15.564 151.357 16.4934C153.608 17.4314 154.343 19.5882 154.343 22.5622V26.9536C154.261 28.1273 154.429 29.3051 154.835 30.41L150.233 30.3777ZM145.312 5.94098V14.7097H147.078C148.757 14.7097 149.773 13.9796 149.773 11.7021V8.88869C149.773 6.87892 149.098 5.96138 147.474 5.96138L145.312 5.94098Z" fill="white"/>
<path d="M171.854 30.3777H167.31L166.508 25.2112H160.981L160.205 30.3756H156.066L160.677 1.92188H167.27L171.854 30.3777ZM161.574 21.348H165.916L163.745 6.94607L161.574 21.348Z" fill="white"/>
<path d="M179.992 1.57031C184.374 1.57031 186.626 4.17591 186.626 8.73135V9.62892H182.372V8.4432C182.372 6.43344 181.55 5.63829 180.114 5.63829C178.678 5.63829 177.863 6.41517 177.863 8.4432C177.863 14.3046 186.666 15.4032 186.666 23.5485C186.666 28.1035 184.374 30.7096 179.925 30.7096C175.476 30.7096 173.184 28.1023 173.184 23.5485V21.7933H177.444V23.8031C177.444 25.8129 178.342 26.5698 179.777 26.5698C181.211 26.5698 182.109 25.8396 182.109 23.8031C182.109 17.9417 173.305 16.8431 173.305 8.70457C173.372 4.17548 175.624 1.57031 179.992 1.57031Z" fill="white"/>
<path d="M195.321 1.57031C199.703 1.57031 201.962 4.17591 201.962 8.73135V9.62892H197.701V8.4432C197.701 6.43344 196.879 5.63829 195.45 5.63829C194.021 5.63829 193.192 6.41517 193.192 8.4432C193.192 14.3046 202.002 15.4032 202.002 23.5485C202.002 28.1035 199.703 30.7096 195.261 30.7096C190.818 30.7096 188.52 28.1023 188.52 23.5485V21.7933H192.8V23.8031C192.8 25.8129 193.698 26.5698 195.133 26.5698C196.567 26.5698 197.519 25.8664 197.519 23.8299C197.519 18.002 188.688 16.8698 188.688 8.73135C188.688 4.17548 190.94 1.57031 195.321 1.57031Z" fill="white"/>
<path d="M0.0546875 43.3294H1.93167V55.4383H0.0546875V43.3294ZM0.98645 48.9585H3.61831C3.82447 48.9629 4.02726 48.9061 4.20066 48.7952C4.37119 48.6902 4.50514 48.5357 4.5844 48.3526C4.67795 48.1379 4.72461 47.9059 4.7213 47.672V46.4473C4.72547 46.2139 4.68108 45.9822 4.59091 45.7667C4.51207 45.5798 4.37833 45.4209 4.20717 45.3107C4.0309 45.2008 3.82636 45.1441 3.61831 45.1474H0.987749V43.3294H3.61135C4.17127 43.3143 4.72638 43.4359 5.22802 43.6835C5.66743 43.9138 6.0276 44.2693 6.26234 44.7044C6.51674 45.1963 6.64158 45.7442 6.62522 46.297V47.8085C6.64143 48.3532 6.51584 48.8928 6.2606 49.3752C6.02372 49.8066 5.65979 50.1557 5.21759 50.3758C4.71913 50.6236 4.16677 50.7452 3.60961 50.7299H0.986012L0.98645 48.9585Z" fill="white"/>
<path d="M9.64834 55.1683C9.14969 54.9172 8.74024 54.5206 8.47495 54.0316C8.18942 53.4883 8.04794 52.8816 8.06383 52.2689V46.5374C8.04708 45.9202 8.18855 45.3088 8.47495 44.7608C8.74437 44.2766 9.15289 43.8832 9.64834 43.6307C10.2068 43.3534 10.8257 43.2178 11.4497 43.236C12.0736 43.2195 12.692 43.3551 13.2511 43.6307C13.7527 43.8811 14.1677 44.2744 14.4431 44.7604C14.7296 45.3084 14.871 45.9197 14.8543 46.537V52.2684C14.8702 52.8812 14.7287 53.4879 14.4431 54.0312C14.1801 54.5189 13.7739 54.9153 13.2785 55.1678C12.7194 55.4435 12.101 55.579 11.4771 55.5625C10.8439 55.5854 10.215 55.4499 9.64834 55.1683ZM12.258 53.5415C12.4767 53.4203 12.653 53.2357 12.7635 53.0125C12.887 52.7557 12.948 52.4736 12.9416 52.189V46.5988C12.9465 46.3143 12.8856 46.0326 12.7635 45.7752C12.6548 45.5515 12.4774 45.3679 12.2567 45.251C12.0112 45.1264 11.7379 45.0655 11.4623 45.0739C11.1866 45.064 10.9129 45.125 10.6679 45.251C10.4438 45.3655 10.2634 45.5496 10.1542 45.7752C10.0321 46.0326 9.97114 46.3143 9.97602 46.5988V52.1803C9.9697 52.4649 10.0307 52.747 10.1542 53.0039C10.2655 53.2297 10.4451 53.4153 10.6679 53.5346C10.9123 53.663 11.186 53.7263 11.4623 53.7186C11.7379 53.727 12.0112 53.6661 12.2567 53.5415H12.258Z" fill="white"/>
<path d="M18.8215 55.5765L18.0953 55.1749C17.6116 54.9039 17.2222 54.4932 16.9788 53.9972C16.7102 53.4198 16.5789 52.7888 16.5951 52.1528V46.7073C16.579 46.0692 16.7103 45.4359 16.9788 44.856C17.2233 44.3626 17.6126 43.9544 18.0953 43.6853C18.6409 43.4144 19.2424 43.2734 19.8523 43.2734C20.4622 43.2734 21.0637 43.4144 21.6094 43.6853C22.0862 43.9682 22.4567 44.3985 22.6641 44.9104C22.92 45.603 23.0431 46.3371 23.027 47.0748H21.1296C21.1327 46.6949 21.0795 46.3166 20.9718 45.952C20.9053 45.6849 20.754 45.4463 20.5403 45.2714C20.3415 45.1278 20.1012 45.052 19.8554 45.0555C19.6134 45.052 19.3755 45.1181 19.1704 45.2459C18.9666 45.3734 18.8084 45.5616 18.7185 45.7836C18.6031 46.0522 18.5471 46.3423 18.5542 46.6343V52.0799C18.5461 52.3742 18.6021 52.6667 18.7185 52.9375C18.8105 53.1565 18.9683 53.3419 19.1704 53.4682C19.3773 53.5911 19.6144 53.6547 19.8554 53.6522C20.1006 53.6571 20.3409 53.583 20.5403 53.441C20.754 53.2662 20.9053 53.0275 20.9718 52.7604C21.08 52.3936 21.1332 52.013 21.1296 51.6307H23.027C23.0468 52.3951 22.9238 53.1565 22.6641 53.8763C22.4683 54.4056 22.0961 54.8524 21.6094 55.1425C21.0625 55.4399 20.4443 55.5834 19.8215 55.5575L18.8215 55.5765Z" fill="white"/>
<path d="M26.808 55.5768L26.0888 55.1549C25.6076 54.8828 25.2206 54.4722 24.9788 53.9773C24.7102 53.3999 24.5789 52.7688 24.5951 52.1329V46.6873C24.5791 46.0492 24.7103 45.4159 24.9788 44.836C25.2169 44.3335 25.6041 43.9155 26.0883 43.6381C26.6204 43.3542 27.2178 43.2134 27.8215 43.2295C28.4443 43.2036 29.0625 43.3471 29.6094 43.6445C30.0932 43.9379 30.4644 44.3836 30.6641 44.9107C30.92 45.6033 31.0431 46.3375 31.027 47.0751H29.1235C29.1319 46.6954 29.081 46.3166 28.9727 45.9523C28.9062 45.6853 28.7549 45.4466 28.5411 45.2717C28.332 45.1228 28.0791 45.0469 27.8219 45.0558C27.5799 45.0522 27.342 45.1184 27.137 45.2463C26.9329 45.3754 26.773 45.5628 26.6781 45.7839C26.5675 46.0538 26.5138 46.3433 26.5203 46.6346V52.0802C26.514 52.3737 26.5677 52.6655 26.6781 52.9378C26.7748 53.1559 26.9345 53.3406 27.137 53.4685C27.3439 53.5914 27.5809 53.6551 27.8219 53.6525C28.0785 53.6629 28.3314 53.5886 28.5411 53.4413C28.7549 53.2665 28.9062 53.0278 28.9727 52.7608C29.0815 52.3942 29.1324 52.0131 29.1235 51.6311H31.0279C31.0393 52.369 30.914 53.1027 30.658 53.7955C30.4643 54.324 30.0944 54.7708 29.6098 55.0616C29.063 55.3592 28.4448 55.5029 27.8219 55.4771L26.808 55.5768Z" fill="white"/>
<path d="M37.6588 55.4305V46.6499L37.8505 46.8813L34.2543 55.4318H32.6172V43.3281H34.3912V52.177L34.1926 51.9525L37.8027 43.3281H39.4328V55.4305H37.6588Z" fill="white"/>
<path d="M46.3533 55.4276V46.647L46.545 46.8784L42.9474 55.4276H41.3047V43.3252H43.0778V52.1737L42.8792 51.9491L46.4893 43.3252H48.119V55.4276H46.3533ZM47.0382 39.9219C47.0824 40.6063 46.8652 41.2821 46.4298 41.8142C46.2105 42.0454 45.943 42.2261 45.646 42.3436C45.349 42.4612 45.0297 42.5128 44.7106 42.4948H44.6423C44.3211 42.513 43.9997 42.4615 43.7004 42.344C43.4011 42.2265 43.1311 42.0457 42.9092 41.8142C42.4801 41.2795 42.2693 40.604 42.3186 39.9219H43.894C43.8761 40.226 43.9475 40.5288 44.0995 40.7933C44.1632 40.8921 44.2516 40.9729 44.356 41.0277C44.4604 41.0826 44.5773 41.1097 44.6953 41.1064H44.764C44.881 41.1086 44.9965 41.0809 45.0997 41.0261C45.2029 40.9713 45.2902 40.8912 45.3533 40.7933C45.5052 40.5287 45.5764 40.226 45.5584 39.9219H47.0382Z" fill="white"/>
<path d="M52.1644 55.577L51.4312 55.1551C50.9475 54.8841 50.5581 54.4734 50.3148 53.9775C50.0461 53.4001 49.9148 52.769 49.931 52.1331V46.6875C49.915 46.0494 50.0463 45.4161 50.3148 44.8362C50.5547 44.3327 50.9444 43.9146 51.4312 43.6383C51.9779 43.3675 52.5804 43.2266 53.1913 43.2266C53.8021 43.2266 54.4047 43.3675 54.9514 43.6383C55.4314 43.9343 55.7998 44.3793 55.9996 44.9044C56.2589 45.5962 56.382 46.3309 56.3625 47.0688H54.4651C54.4682 46.6889 54.415 46.3106 54.3073 45.946C54.2409 45.679 54.0895 45.4403 53.8758 45.2655C53.6676 45.1146 53.414 45.0384 53.1565 45.0495C52.9146 45.0468 52.677 45.1129 52.4716 45.24C52.2678 45.3674 52.1096 45.5556 52.0197 45.7776C51.9065 46.0467 51.8527 46.3368 51.8619 46.6284V52.0739C51.8518 52.3677 51.9056 52.6603 52.0197 52.9315C52.1116 53.1506 52.2695 53.3359 52.4716 53.4623C52.6788 53.5845 52.9156 53.6481 53.1565 53.6462C53.4134 53.6587 53.667 53.5842 53.8758 53.4351C54.0895 53.2602 54.2408 53.0215 54.3073 52.7545C54.4155 52.3877 54.4687 52.007 54.4651 51.6248H56.3625C56.3759 52.3622 56.2529 53.0959 55.9996 53.7892C55.8038 54.3185 55.4316 54.7653 54.9449 55.0553C54.398 55.3528 53.7798 55.4963 53.157 55.4703L52.1644 55.577Z" fill="white"/>
<path d="M57.9883 43.3281H59.8653V55.437H57.9883V43.3281ZM58.8705 48.5215H62.2955V50.2981H58.8705V48.5215ZM60.9257 50.0597L62.5697 49.0863L65.4124 55.4098H63.3033L60.9257 50.0597ZM61.0217 48.8415L62.893 43.3281H64.9069L62.2833 50.2709L61.0217 48.8415Z" fill="white"/>
<path d="M71.2956 55.4305V46.6499L71.4872 46.8813L67.8979 55.4318H66.2539V43.3281H68.0279V52.177L67.8293 51.9525L71.4516 43.3281H73.0817V55.4305H71.2956Z" fill="white"/>
<path d="M79.9987 55.4276V46.647L80.1903 46.8784L76.5941 55.4289H74.957V43.3252H76.7245V52.1737L76.5259 51.9491L80.136 43.3252H81.7662V55.4276H79.9987ZM80.6836 39.9219C80.7281 40.6063 80.5108 41.2822 80.0752 41.8142C79.8559 42.0454 79.5884 42.2261 79.2914 42.3436C78.9944 42.4612 78.6751 42.5128 78.3559 42.4948H78.2873C77.966 42.513 77.6446 42.4615 77.3453 42.344C77.0461 42.2265 76.7761 42.0457 76.5541 41.8142C76.1253 41.2795 75.9146 40.6039 75.964 39.9219H77.505C77.4871 40.226 77.5585 40.5288 77.7106 40.7933C77.7743 40.8921 77.8627 40.9729 77.9671 41.0277C78.0715 41.0826 78.1884 41.1097 78.3064 41.1064H78.3751C78.492 41.1086 78.6076 41.0809 78.7108 41.0261C78.8139 40.9713 78.9012 40.8912 78.9644 40.7933C79.1164 40.5288 79.1878 40.226 79.1699 39.9219H80.6836Z" fill="white"/>
<path d="M86.2539 43.3281H88.1309V55.437H86.2539V43.3281ZM87.3295 43.3281H91.8862V45.0987H87.3295V43.3281ZM90.8162 43.3281H92.6997V55.437H90.8162V43.3281Z" fill="white"/>
<path d="M94.5859 43.3297H96.4699V55.4386H94.5859V43.3297ZM95.5242 48.9588H98.1496C98.3579 48.9634 98.563 48.9066 98.7389 48.7955C98.9077 48.6886 99.0411 48.5347 99.1226 48.3529C99.2139 48.1377 99.2584 47.9058 99.253 47.6723V46.4476C99.2561 46.215 99.2142 45.9839 99.1295 45.767C99.048 45.5796 98.9117 45.4207 98.7384 45.311C98.5629 45.1994 98.3579 45.1425 98.1496 45.1478H95.5259V43.3297H98.1426C98.7027 43.3126 99.2583 43.4343 99.7593 43.6838C100.201 43.9134 100.565 44.2689 100.802 44.7047C101.053 45.1978 101.178 45.7449 101.165 46.2973V47.8088C101.178 48.3532 101.053 48.892 100.801 49.3755C100.562 49.8056 100.198 50.1543 99.7575 50.3761C99.2559 50.6237 98.7008 50.7453 98.1409 50.7302H95.5242V48.9588Z" fill="white"/>
<path d="M104.175 55.1687C103.679 54.9162 103.273 54.5197 103.01 54.0321C102.725 53.4887 102.583 52.882 102.599 52.2693V46.5357C102.582 45.9184 102.724 45.3071 103.01 44.7591C103.276 44.2756 103.682 43.8821 104.175 43.6294C104.739 43.3692 105.354 43.2344 105.976 43.2344C106.599 43.2344 107.213 43.3692 107.778 43.6294C108.283 43.8755 108.699 44.2701 108.97 44.7595C109.256 45.3075 109.398 45.9189 109.381 46.5361V52.2688C109.397 52.8816 109.256 53.4883 108.97 54.0316C108.71 54.5214 108.303 54.9187 107.805 55.1682C107.241 55.4285 106.626 55.5633 106.004 55.5633C105.381 55.5633 104.767 55.4285 104.202 55.1682L104.175 55.1687ZM106.764 53.5419C106.985 53.4208 107.165 53.2357 107.278 53.0112C107.399 52.7538 107.458 52.4717 107.449 52.1877V46.5992C107.456 46.3153 107.397 46.0335 107.278 45.7757C107.166 45.5517 106.986 45.3682 106.764 45.2514C106.519 45.1254 106.245 45.0644 105.97 45.0743C105.694 45.0654 105.421 45.1263 105.175 45.2514C104.955 45.3683 104.777 45.5519 104.668 45.7757C104.546 46.033 104.485 46.3147 104.49 46.5992V52.1803C104.484 52.4649 104.545 52.747 104.668 53.0038C104.779 53.2279 104.956 53.4131 105.175 53.5346C105.42 53.6621 105.693 53.7254 105.97 53.7185C106.245 53.7285 106.519 53.6675 106.764 53.5415V53.5419Z" fill="white"/>
<path d="M116.205 55.4305V46.6499L116.397 46.8813L112.801 55.4318H111.164V43.3281H112.938V52.177L112.739 51.9525L116.35 43.3281H117.98V55.4305H116.205Z" fill="white"/>
<path d="M121.83 55.5806L121.076 55.22C120.564 54.991 120.157 54.5809 119.932 54.0695C119.67 53.4422 119.542 52.7677 119.556 52.0887H121.446C121.407 52.5534 121.541 53.0162 121.823 53.389C121.981 53.5321 122.168 53.6411 122.37 53.709C122.573 53.7769 122.788 53.8024 123.001 53.7837C123.196 53.7977 123.391 53.7703 123.574 53.7033C123.757 53.6363 123.924 53.5312 124.063 53.395C124.194 53.2521 124.295 53.0845 124.36 52.9021C124.424 52.7196 124.452 52.5262 124.44 52.3331V51.3399C124.462 50.9961 124.36 50.6558 124.152 50.3803C124.048 50.2645 123.918 50.1737 123.773 50.1147C123.629 50.0558 123.472 50.0302 123.316 50.04H121.624V48.2768H123.358C123.485 48.2832 123.612 48.2621 123.73 48.2152C123.848 48.1682 123.955 48.0964 124.043 48.0047C124.213 47.7852 124.298 47.5123 124.283 47.2356V46.2424C124.294 46.0769 124.272 45.9109 124.218 45.754C124.163 45.5972 124.078 45.4528 123.966 45.3295C123.685 45.1095 123.334 44.9963 122.976 45.01C122.619 45.0236 122.278 45.1634 122.014 45.4042C121.766 45.7781 121.653 46.2243 121.692 46.6703H119.802C119.776 45.9931 119.894 45.3181 120.149 44.6895C120.366 44.2025 120.746 43.8056 121.225 43.5667C121.81 43.3054 122.447 43.182 123.088 43.2061C123.662 43.1907 124.232 43.3091 124.752 43.5516C125.202 43.7681 125.572 44.1208 125.807 44.5591C126.062 45.0527 126.187 45.6024 126.17 46.1569V47.1501C126.172 47.5294 126.068 47.9018 125.868 48.2254C125.651 48.5768 125.359 48.8765 125.012 49.1033C125.431 49.2582 125.784 49.5514 126.012 49.9338C126.265 50.3672 126.391 50.8624 126.375 51.3632V52.3815C126.39 52.9795 126.253 53.5717 125.978 54.1037C125.717 54.5745 125.314 54.9527 124.827 55.1859C124.265 55.4512 123.647 55.5796 123.025 55.5603L121.83 55.5806Z" fill="white"/>
<path d="M127.797 43.3293H129.674V55.4382H127.797V43.3293ZM128.879 53.6551H131.188C131.518 53.6815 131.846 53.5817 132.105 53.3761C132.213 53.2742 132.297 53.1502 132.352 53.0126C132.406 52.8751 132.43 52.7273 132.42 52.5798V51.3547C132.425 51.1207 132.378 50.8885 132.284 50.6741C132.198 50.4829 132.051 50.3251 131.866 50.225C131.657 50.1092 131.42 50.0527 131.181 50.0617H128.866V48.3193H131.16C131.312 48.3295 131.464 48.3067 131.606 48.2527C131.748 48.1986 131.876 48.1145 131.982 48.0062C132.188 47.7533 132.289 47.4317 132.263 47.1075V46.1475C132.274 46.0062 132.256 45.864 132.209 45.7302C132.161 45.5964 132.087 45.4738 131.989 45.3702C131.759 45.1762 131.462 45.0786 131.161 45.0981H128.879V43.3293H131.269C131.808 43.3154 132.342 43.4249 132.831 43.6493C133.244 43.8442 133.586 44.1609 133.811 44.5562C134.043 44.9965 134.159 45.4885 134.146 45.9856V46.9659C134.151 47.3225 134.079 47.676 133.934 48.0023C133.795 48.3036 133.581 48.564 133.31 48.758C133.018 48.963 132.684 49.1003 132.331 49.1596C132.71 49.2086 133.071 49.3463 133.386 49.5612C133.679 49.7663 133.915 50.0428 134.071 50.3645C134.239 50.7198 134.323 51.1085 134.317 51.5011V52.7331C134.331 53.2376 134.213 53.737 133.975 54.1828C133.753 54.5813 133.414 54.9022 133.002 55.1018C132.527 55.3251 132.006 55.4346 131.481 55.4218H128.892L128.879 53.6551Z" fill="white"/>
<path d="M137.428 55.1613C136.931 54.9116 136.524 54.5144 136.264 54.0246C135.978 53.4813 135.837 52.8746 135.853 52.2619V46.5283C135.836 45.911 135.978 45.2997 136.264 44.7517C136.528 44.2664 136.934 43.8723 137.428 43.6215C137.993 43.3613 138.608 43.2266 139.23 43.2266C139.852 43.2266 140.467 43.3613 141.031 43.6215C141.524 43.8743 141.93 44.2678 142.196 44.7512C142.482 45.2992 142.624 45.9106 142.607 46.5278V52.2614C142.623 52.8742 142.481 53.4809 142.196 54.0242C141.933 54.5119 141.527 54.9084 141.031 55.1608C140.467 55.4211 139.852 55.556 139.23 55.5561C138.608 55.5561 137.993 55.4214 137.428 55.1613V55.1613ZM140.025 53.5345C140.244 53.4131 140.421 53.2279 140.532 53.0038C140.655 52.7469 140.716 52.4648 140.71 52.1802V46.5918C140.715 46.3073 140.654 46.0255 140.532 45.7682C140.423 45.5445 140.246 45.3609 140.025 45.244C139.78 45.1188 139.506 45.0579 139.23 45.0669C138.955 45.0569 138.681 45.1179 138.436 45.244C138.213 45.3606 138.033 45.5438 137.921 45.7678C137.799 46.0251 137.738 46.3069 137.743 46.5913V52.1729C137.734 52.4569 137.793 52.739 137.914 52.9964C138.026 53.2236 138.205 53.4112 138.428 53.5341C138.672 53.6624 138.946 53.7258 139.222 53.718C139.501 53.7261 139.777 53.6627 140.024 53.5341L140.025 53.5345Z" fill="white"/>
<path d="M143.441 53.6673H151.305V55.4379H143.441V53.6673ZM143.441 53.6673H145.277V57.813H143.476L143.441 53.6673ZM143.633 53.6673H143.804C144.014 53.663 144.217 53.5956 144.387 53.4741C144.557 53.3526 144.686 53.1826 144.756 52.9867C145.011 52.399 145.126 51.7607 145.092 51.1216V43.3281H146.893V50.9925C146.911 51.7105 146.804 52.4263 146.578 53.1085C146.405 53.6503 146.068 54.1257 145.613 54.4697C145.129 54.7968 144.553 54.9614 143.969 54.9395H143.633V53.6673ZM146.371 43.3553H149.908V45.1259H146.374L146.371 43.3553ZM149.07 43.3553H150.926V55.437H149.042L149.07 43.3553ZM150.323 53.6673H152.125V57.813H150.323V53.6673Z" fill="white"/>
<path d="M158.393 55.4305V46.6499L158.585 46.8813L154.989 55.4318H153.352V43.3281H155.119V52.177L154.92 51.9525L158.53 43.3281H160.167V55.4305H158.393Z" fill="white"/>
<path d="M161.031 43.3281H167.69V45.0987H161.031V43.3281ZM163.429 44.3287H165.29V55.437H163.427L163.429 44.3287Z" fill="white"/>
<path d="M168.504 43.3281H170.381V55.437H168.504V43.3281ZM169.373 43.3281H174.463V45.1453H169.374L169.373 43.3281ZM169.373 48.5215H173.921V50.2981H169.374L169.373 48.5215ZM169.373 53.6263H174.463V55.4098H169.374L169.373 53.6263Z" fill="white"/>
<path d="M175.793 53.6742C176.008 53.681 176.219 53.6242 176.401 53.511C176.576 53.3872 176.706 53.2106 176.771 53.0075C176.859 52.7444 176.901 52.4681 176.895 52.1908V43.3281H178.772V52.2448C178.789 52.8417 178.679 53.4355 178.45 53.9873C178.263 54.436 177.933 54.8114 177.511 55.0561C177.031 55.3089 176.492 55.4311 175.949 55.4102H175.785L175.793 53.6742ZM178.115 43.3281H181.869V45.0987H178.115V43.3281ZM180.931 43.3281H182.799V55.437H180.931V43.3281Z" fill="white"/>
<path d="M184.684 43.3281H186.561V55.437H184.684V43.3281ZM185.649 53.6401H188.142C188.364 53.6463 188.582 53.5897 188.773 53.4769C188.952 53.3608 189.095 53.1959 189.184 53.0018C189.285 52.7723 189.334 52.5237 189.328 52.2733V51.293C189.334 51.0338 189.285 50.7762 189.184 50.5373C189.099 50.3385 188.956 50.1699 188.773 50.0541C188.582 49.9412 188.364 49.8846 188.142 49.8908H185.649V48.0927H188.245C188.797 48.0781 189.344 48.2021 189.835 48.4532C190.274 48.6827 190.63 49.0418 190.856 49.481C191.106 49.9816 191.228 50.5357 191.212 51.0944V52.4556C191.228 53.0033 191.105 53.5462 190.856 54.0348C190.63 54.4702 190.273 54.8247 189.835 55.0492C189.342 55.2919 188.796 55.4105 188.246 55.3947H185.65L185.649 53.6401Z" fill="white"/>
<path d="M2.22773 75.9983L1.50153 75.5966C1.01781 75.3257 0.628434 74.915 0.385073 74.419C0.116451 73.8416 -0.0148491 73.2105 0.0013334 72.5746V67.1291C-0.0147073 66.4909 0.116561 65.8576 0.385073 65.2777C0.629584 64.7843 1.01885 64.3762 1.50153 64.107C2.04824 63.8363 2.65076 63.6953 3.26162 63.6953C3.87247 63.6953 4.47498 63.8363 5.02169 64.107C5.50171 64.4031 5.87014 64.8481 6.06993 65.3732C6.32919 66.0649 6.45237 66.7997 6.43281 67.5376H4.5354C4.53852 67.1577 4.48536 66.7793 4.37764 66.4148C4.31148 66.1477 4.16046 65.9089 3.94696 65.7338C3.73877 65.5829 3.48516 65.5068 3.22772 65.5179C2.9857 65.5143 2.74782 65.5804 2.54281 65.7083C2.33895 65.8358 2.18077 66.0239 2.09084 66.2459C1.97546 66.5146 1.91945 66.8047 1.92657 67.0967V72.5422C1.91847 72.8365 1.97451 73.1291 2.09084 73.3999C2.18278 73.6189 2.34066 73.8043 2.54281 73.9306C2.74971 74.0534 2.98672 74.1171 3.22772 74.1146C3.48481 74.1265 3.73838 74.0515 3.94696 73.9017C4.1607 73.7268 4.31203 73.4881 4.37851 73.2211C4.48672 72.8543 4.53986 72.4736 4.53626 72.0914H6.43367C6.44707 72.8288 6.32407 73.5625 6.07079 74.2558C5.87491 74.7851 5.50273 75.2318 5.01604 75.5219C4.4692 75.8194 3.85102 75.9629 3.22816 75.9369L2.22773 75.9983Z" fill="white"/>
<path d="M8.04297 63.75H9.9269V75.8589H8.04297V63.75ZM9.12509 63.75H13.6804V65.5206H9.12509V63.75ZM12.6118 63.75H14.4957V75.8589H12.6118V63.75Z" fill="white"/>
<path d="M17.8683 75.5823C17.3697 75.3313 16.9602 74.9346 16.6949 74.4457C16.4118 73.9017 16.2727 73.2951 16.2908 72.6829V66.9515C16.2718 66.3348 16.4109 65.7235 16.6949 65.1749C16.9644 64.6907 17.3729 64.2972 17.8683 64.0448C18.4268 63.7674 19.0456 63.6318 19.6697 63.6501C20.2936 63.6336 20.912 63.7691 21.4711 64.0448C21.9726 64.2952 22.3877 64.6885 22.6631 65.1745C22.9495 65.7225 23.091 66.3338 23.0743 66.9511V72.6825C23.0902 73.2953 22.9487 73.9019 22.6631 74.4453C22.4002 74.933 21.9939 75.3295 21.4984 75.5819C20.9394 75.8575 20.3209 75.993 19.6971 75.9766C19.0638 75.9994 18.435 75.8637 17.8683 75.5819V75.5823ZM20.485 73.9556C20.7043 73.8341 20.8811 73.6489 20.9917 73.4248C21.1152 73.168 21.1762 72.8859 21.1699 72.6013V67.0128C21.1748 66.7284 21.1138 66.4466 20.9917 66.1893C20.8831 65.9655 20.7056 65.7819 20.485 65.665C20.2394 65.5405 19.9661 65.4796 19.6905 65.488C19.4148 65.4781 19.1412 65.5391 18.8961 65.665C18.672 65.7796 18.4917 65.9637 18.3824 66.1893C18.2627 66.4472 18.2042 66.7289 18.2112 67.0128V72.5944C18.2027 72.8784 18.2614 73.1605 18.3824 73.4179C18.4937 73.6438 18.6733 73.8293 18.8961 73.9487C19.1405 74.077 19.4142 74.1404 19.6905 74.1326C19.9661 74.141 20.2394 74.0801 20.485 73.9556V73.9556Z" fill="white"/>
<path d="M24.8789 63.7513H26.7694V75.8601H24.8924L24.8789 63.7513ZM25.8107 69.3803H28.4412C28.6474 69.3848 28.8502 69.328 29.0236 69.2171C29.194 69.1122 29.328 68.9578 29.4073 68.7749C29.5009 68.5602 29.5476 68.3282 29.5442 68.0943V66.8692C29.5484 66.6358 29.504 66.4041 29.4138 66.1886C29.335 66.0017 29.2013 65.8427 29.0301 65.7325C28.8538 65.6227 28.6493 65.566 28.4412 65.5693H25.8107V63.7513H28.4343C28.9942 63.7362 29.5493 63.8578 30.0509 64.1054C30.4904 64.3357 30.8505 64.6911 31.0853 65.1262C31.3396 65.6181 31.4645 66.1661 31.4481 66.7189V68.2303C31.4648 68.7749 31.3396 69.3146 31.0848 69.7971C30.848 70.2285 30.484 70.5776 30.0418 70.7976C29.5434 71.0455 28.991 71.1671 28.4338 71.1517H25.8102L25.8107 69.3803Z" fill="white"/>
<path d="M32.0898 63.75H38.7564V65.5206H32.0898V63.75ZM34.4875 64.7506H36.3662V75.8589H34.4975L34.4875 64.7506Z" fill="white"/>
<path d="M44.6315 75.8524V67.0717L44.8232 67.3032L41.2269 75.8537H39.5898V63.75H41.3638V72.5989L41.1583 72.3743L44.7754 63.75H46.4055V75.8524H44.6315Z" fill="white"/>
<path d="M48.2695 63.7512H50.1465V75.8601H48.2695V63.7512ZM49.3725 74.1042H51.681C52.0132 74.1259 52.3419 74.0268 52.6058 73.8252C52.7111 73.7218 52.7931 73.5973 52.8462 73.46C52.8993 73.3227 52.9224 73.1758 52.914 73.0289V71.8038C52.9184 71.5697 52.8717 71.3375 52.7771 71.1232C52.6913 70.9319 52.5445 70.7741 52.3594 70.6741C52.1506 70.5581 51.9136 70.5016 51.6745 70.5108H49.3712V68.7403H51.6658C51.8175 68.7508 51.9696 68.7282 52.1116 68.6741C52.2536 68.62 52.3819 68.5357 52.4876 68.4272C52.6958 68.1753 52.7987 67.8536 52.7753 67.5285V66.5694C52.7822 66.4279 52.7596 66.2866 52.7089 66.1542C52.6582 66.0219 52.5805 65.9014 52.4807 65.8003C52.2504 65.6063 51.9532 65.5087 51.6519 65.5282H49.3708V63.7512H51.761C52.2995 63.7372 52.8339 63.8467 53.3229 64.0712C53.7356 64.2661 54.0777 64.5828 54.3025 64.978C54.535 65.4184 54.6504 65.9104 54.638 66.4074V67.3877C54.6428 67.7444 54.5703 68.0978 54.4255 68.4242C54.2871 68.7254 54.0723 68.9858 53.8023 69.1799C53.5101 69.3849 53.1754 69.5221 52.8227 69.5815C53.2013 69.6305 53.5628 69.7681 53.8775 69.9831C54.1712 70.1882 54.407 70.4647 54.5624 70.7863C54.7272 71.1401 54.8092 71.5263 54.8023 71.916V73.1481C54.8145 73.6702 54.6894 74.1864 54.4394 74.6457C54.2173 75.0339 53.8832 75.3469 53.4802 75.5444C53.0053 75.7676 52.4844 75.8772 51.9592 75.8644H49.3699L49.3725 74.1042Z" fill="white"/>
<path d="M56.3828 63.75H58.282V75.8589H56.405L56.3828 63.75ZM57.4258 68.9913H62.0494V70.7541H57.4241L57.4258 68.9913ZM60.9516 63.75H62.8356V75.8589H60.9516V63.75Z" fill="white"/>
<path d="M66.2265 75.5819C65.7277 75.3309 65.3183 74.9343 65.0531 74.4453C64.7675 73.9019 64.626 73.2953 64.642 72.6825V66.9511C64.6252 66.3338 64.7667 65.7225 65.0531 65.1745C65.3226 64.6904 65.7311 64.2971 66.2265 64.0448C66.7849 63.7674 67.4038 63.6318 68.0278 63.6501C68.6517 63.6336 69.2701 63.7691 69.8292 64.0448C70.3207 64.2996 70.7258 64.6927 70.9939 65.1749C71.2803 65.7229 71.4218 66.3342 71.405 66.9515V72.6821C71.4209 73.2948 71.2794 73.9015 70.9939 74.4448C70.7309 74.9325 70.3246 75.329 69.8292 75.5815C69.2701 75.8571 68.6517 75.9926 68.0278 75.9762C67.4038 75.9945 66.785 75.8591 66.2265 75.5819V75.5819ZM68.8227 73.9551C69.0421 73.8336 69.2188 73.6485 69.3294 73.4244C69.4529 73.1675 69.5139 72.8855 69.5076 72.6009V67.0124C69.5125 66.7279 69.4515 66.4462 69.3294 66.1889C69.2208 65.9651 69.0433 65.7815 68.8227 65.6646C68.5771 65.5401 68.3039 65.4792 68.0283 65.4876C67.7525 65.4776 67.4789 65.5386 67.2338 65.6646C67.0098 65.7792 66.8294 65.9632 66.7202 66.1889C66.6005 66.4468 66.5419 66.7285 66.5489 67.0124V72.594C66.5404 72.878 66.5991 73.1601 66.7202 73.4175C66.8314 73.6434 67.0111 73.8289 67.2338 73.9482C67.4782 74.0766 67.7519 74.14 68.0283 74.1322C68.3039 74.1406 68.5771 74.0797 68.8227 73.9551V73.9551Z" fill="white"/>
<path d="M78.2643 75.8495V67.0688L78.456 67.3003L74.8597 75.8508H73.2227V63.7471H74.9901V72.5956L74.7915 72.371L78.4016 63.7471H80.0387V75.8495H78.2643ZM78.9492 60.3438C78.9935 61.0282 78.7762 61.704 78.3408 62.2361C78.1215 62.4672 77.854 62.6479 77.557 62.7655C77.26 62.8831 76.9408 62.9347 76.6216 62.9167H76.5529C76.2316 62.9349 75.9102 62.8834 75.611 62.7659C75.3117 62.6484 75.0417 62.4676 74.8198 62.2361C74.3834 61.7044 74.1653 61.0285 74.2092 60.3438H75.7502C75.7323 60.6479 75.8037 60.9506 75.9558 61.2152C76.0195 61.314 76.1079 61.3948 76.2123 61.4496C76.3167 61.5045 76.4336 61.5316 76.5516 61.5283H76.6203C76.7371 61.5304 76.8526 61.5027 76.9557 61.4479C77.0588 61.3931 77.146 61.313 77.2091 61.2152C77.3781 60.9558 77.4663 60.6527 77.4629 60.3438H78.9492Z" fill="white"/>
<path d="M86.2959 74.0799C85.6093 73.7823 85.0323 73.2805 84.6445 72.6436C84.2494 71.9517 84.0528 71.1655 84.0761 70.3704V68.8455C84.0533 68.0503 84.2499 67.264 84.6445 66.5719C85.0301 65.9266 85.6069 65.4154 86.2959 65.1083C87.969 64.455 89.8288 64.455 91.5019 65.1083C92.1836 65.4106 92.757 65.9115 93.1459 66.5447C93.5404 67.2367 93.737 68.0228 93.7144 68.8179V70.3423C93.7376 71.1374 93.541 71.9237 93.1459 72.6155C92.759 73.2504 92.1851 73.7518 91.5019 74.0518C89.8288 74.7051 87.969 74.7051 86.2959 74.0518V74.0799ZM91.0903 72.14C91.3496 71.9256 91.5548 71.6537 91.6892 71.3462C91.8236 71.0387 91.8836 70.7042 91.8643 70.3695V68.8455C91.8824 68.5109 91.8219 68.1768 91.6875 67.8695C91.5532 67.5622 91.3487 67.2902 91.0903 67.075C90.4335 66.6627 89.6725 66.4439 88.8956 66.4439C88.1188 66.4439 87.3578 66.6627 86.701 67.075C86.4426 67.2902 86.2381 67.5622 86.1038 67.8695C85.9694 68.1768 85.9089 68.5109 85.927 68.8455V70.3704C85.9077 70.7051 85.9677 71.0396 86.1021 71.3471C86.2365 71.6546 86.4417 71.9265 86.701 72.1409C87.3579 72.553 88.1189 72.7717 88.8958 72.7715C89.6726 72.7713 90.4336 72.5524 91.0903 72.14V72.14ZM87.9613 63.3594H89.8383V75.8565H87.9613V63.3594Z" fill="white"/>
<path d="M96.6396 75.5827C96.1441 75.3304 95.7378 74.9339 95.4749 74.4461C95.1894 73.9028 95.0479 73.2961 95.0638 72.6833V66.9498C95.0471 66.3325 95.1885 65.7211 95.4749 65.1732C95.7411 64.6896 96.1467 64.2962 96.6396 64.0435C97.2041 63.7832 97.8189 63.6484 98.4412 63.6484C99.0635 63.6484 99.6783 63.7832 100.243 64.0435C100.745 64.2928 101.16 64.6864 101.435 65.1732C101.716 65.723 101.854 66.3334 101.839 66.9498V72.6829C101.854 73.2947 101.715 73.9006 101.435 74.4457C101.17 74.9347 100.76 75.3314 100.262 75.5823C99.697 75.8425 99.0822 75.9773 98.4599 75.9773C97.8376 75.9773 97.2228 75.8425 96.6583 75.5823L96.6396 75.5827ZM99.2633 73.956C99.486 73.8367 99.6657 73.6511 99.7769 73.4252C99.8981 73.1678 99.9567 72.8858 99.9482 72.6017V67.0132C99.9552 66.7293 99.8966 66.4476 99.7769 66.1897C99.6677 65.9641 99.4873 65.78 99.2633 65.6655C99.0182 65.5395 98.7446 65.4785 98.4688 65.4884C98.1932 65.4794 97.9198 65.5404 97.6744 65.6655C97.4538 65.7824 97.2763 65.966 97.1677 66.1897C97.0456 66.447 96.9846 66.7288 96.9895 67.0132V72.5944C96.9832 72.879 97.0442 73.1611 97.1677 73.4179C97.2782 73.642 97.455 73.8271 97.6744 73.9486C97.9191 74.0761 98.1926 74.1395 98.4688 74.1326C98.7446 74.1425 99.0182 74.0815 99.2633 73.9556V73.956Z" fill="white"/>
<path d="M103.66 63.7516H105.544V75.8605H103.66V63.7516ZM104.598 69.3807H107.222C107.43 69.3853 107.635 69.3285 107.811 69.2174C107.98 69.1105 108.114 68.9565 108.195 68.7748C108.286 68.5596 108.331 68.3277 108.325 68.0942V66.8695C108.33 66.6361 108.285 66.4044 108.195 66.1889C108.119 66.0006 107.984 65.8411 107.811 65.7329C107.635 65.6218 107.43 65.565 107.222 65.5696H104.598V63.7516H107.215C107.775 63.7345 108.331 63.8562 108.832 64.1057C109.274 64.3353 109.637 64.6907 109.875 65.1266C110.126 65.6197 110.251 66.1667 110.238 66.7192V68.2307C110.251 68.7751 110.125 69.3139 109.873 69.7974C109.634 70.2275 109.271 70.5762 108.83 70.798C108.328 71.0456 107.773 71.1672 107.213 71.1521H104.597L104.598 69.3807Z" fill="white"/>
<path d="M118.623 63.75H120.452V75.8589H118.746V66.9694L118.877 67.5001L116.767 73.9596H115.602L113.506 67.6841L113.664 67.0035V75.8589H111.91V63.75H113.767L116.178 71.0602L118.623 63.75Z" fill="white"/>
<path d="M122.328 63.75H124.205V75.8589H122.328V63.75ZM123.294 74.062H125.527C125.751 74.068 125.971 74.0115 126.164 73.8987C126.344 73.7826 126.487 73.6178 126.575 73.4237C126.676 73.1942 126.725 72.9456 126.719 72.6952V71.7149C126.726 71.4557 126.677 71.1981 126.575 70.9592C126.491 70.7603 126.348 70.5918 126.164 70.476C125.971 70.3649 125.751 70.3084 125.527 70.3127H123.294V68.5145H125.631C126.187 68.5 126.738 68.624 127.234 68.8751C127.671 69.1049 128.025 69.4641 128.248 69.9029C128.487 70.4068 128.604 70.9593 128.59 71.5163V72.8774C128.604 73.4234 128.486 73.9647 128.248 74.4567C128.022 74.892 127.665 75.2466 127.227 75.4711C126.731 75.7125 126.184 75.831 125.631 75.8166H123.296L123.294 74.062ZM131.322 75.8325H129.432V63.75H131.322V75.8325Z" fill="white"/>
<path d="M137.881 75.9976L137.155 75.596C136.672 75.3261 136.285 74.9149 136.046 74.4184C135.775 73.8417 135.644 73.2101 135.662 72.574V67.1289C135.643 66.4904 135.774 65.8563 136.046 65.2775C136.285 64.783 136.673 64.374 137.155 64.1068C137.687 63.8229 138.285 63.6821 138.888 63.6983C139.511 63.6724 140.129 63.8159 140.676 64.1133C141.158 64.4086 141.529 64.8536 141.731 65.3795C141.988 66.0717 142.109 66.8064 142.087 67.5439H140.19C140.195 67.1643 140.144 66.786 140.039 66.4211C139.967 66.1562 139.817 65.919 139.607 65.7405C139.398 65.5915 139.145 65.5156 138.888 65.5246C138.646 65.521 138.408 65.5872 138.203 65.715C137.999 65.8441 137.839 66.0315 137.744 66.2526C137.634 66.5225 137.58 66.8121 137.586 67.1034V72.5489C137.579 72.8445 137.633 73.1384 137.744 73.4126C137.841 73.6307 138 73.8154 138.203 73.9433C138.41 74.0662 138.647 74.1298 138.888 74.1273C139.144 74.1376 139.397 74.0634 139.607 73.9161C139.816 73.7376 139.967 73.5004 140.038 73.2356C140.144 72.8683 140.195 72.4877 140.189 72.1059H142.087C142.103 72.8436 141.98 73.5778 141.724 74.2703C141.528 74.7995 141.156 75.2463 140.669 75.5364C140.124 75.8328 139.508 75.9762 138.887 75.9514L137.881 75.9976Z" fill="white"/>
<path d="M146.13 74.2001L149.11 69.4356C149.406 68.9574 149.654 68.4511 149.849 67.9241C150.005 67.529 150.091 67.1097 150.102 66.6852V66.6027C150.126 66.2978 150.035 65.995 149.849 65.752C149.752 65.6498 149.633 65.5705 149.502 65.5199C149.37 65.4692 149.229 65.4485 149.088 65.4592C148.929 65.4511 148.771 65.4815 148.626 65.548C148.482 65.6144 148.356 65.7148 148.259 65.8405C148.05 66.1803 147.943 66.5724 147.951 66.9706V67.1477H146.039V66.9706C146.046 66.3395 146.176 65.7158 146.424 65.1344C146.628 64.6675 146.979 64.2784 147.423 64.025C147.92 63.7613 148.477 63.6322 149.04 63.6506C149.605 63.6309 150.166 63.7452 150.677 63.984C151.112 64.1955 151.464 64.545 151.677 64.9772C151.919 65.4847 152.037 66.0424 152.019 66.604V66.6722C152.005 67.2063 151.906 67.7347 151.724 68.2377C151.497 68.8733 151.211 69.4863 150.868 70.0687L148.478 74.0576H152.019V75.8545H146.13V74.2001Z" fill="white"/>
<path d="M154.358 75.2031C154.087 74.9071 153.879 74.5598 153.746 74.1821C153.613 73.8044 153.558 73.4039 153.584 73.0046V66.6198C153.559 66.2216 153.615 65.8224 153.748 65.446C153.881 65.0695 154.088 64.7234 154.358 64.4282C154.972 63.9242 155.744 63.6484 156.54 63.6484C157.336 63.6484 158.108 63.9242 158.722 64.4282C158.992 64.7249 159.199 65.0723 159.332 65.4498C159.465 65.8274 159.521 66.2275 159.496 66.6267V73.0046C159.521 73.4039 159.466 73.8042 159.333 74.1819C159.2 74.5595 158.992 74.9068 158.722 75.2031C158.108 75.7072 157.336 75.9829 156.54 75.9829C155.744 75.9829 154.972 75.7072 154.358 75.2031ZM157.345 73.8419C157.543 73.5726 157.64 73.2427 157.619 72.9096V66.6949C157.643 66.3658 157.545 66.0392 157.345 65.776C157.13 65.5674 156.841 65.4506 156.541 65.4506C156.24 65.4506 155.952 65.5674 155.737 65.776C155.534 66.0382 155.434 66.3649 155.456 66.6949V72.9299C155.437 73.2638 155.536 73.5939 155.737 73.8622C155.952 74.0708 156.24 74.1876 156.541 74.1876C156.841 74.1876 157.13 74.0708 157.345 73.8622V73.8419Z" fill="white"/>
<path d="M164.305 75.8589H162.401V65.8401L160.723 66.7388V64.7575L162.401 63.75H164.313L164.305 75.8589Z" fill="white"/>
<path d="M169.167 75.8589H167.298V65.8401L165.613 66.7388V64.7575L167.265 63.75H169.169L169.167 75.8589Z" fill="white"/>
<path d="M173.676 67.2344H175.553V75.8583H173.676V67.2344ZM174.655 67.2344H178.204V69.0049H174.655V67.2344Z" fill="white"/>
<path d="M179.04 74.0078H180.896V75.8591H179.031L179.04 74.0078Z" fill="white"/>
</svg>
