<svg width="23" height="23" viewBox="0 0 23 23" fill="none" xmlns="http://www.w3.org/2000/svg">
<path d="M7.36138 1.29385L7.36135 1.29378L7.35697 1.29581C6.05499 1.89672 4.89183 2.60272 3.97785 3.56694C3.01932 4.52582 2.26236 5.63643 1.70763 6.94761C1.15283 8.25893 0.849709 9.67226 0.849709 11.0871C0.849709 13.0804 1.34256 14.8797 2.32848 16.5297L0.459386 22.0878L0.365275 22.3677L0.646791 22.2787L6.40989 20.4561C8.00648 21.2939 9.70401 21.7382 11.5008 21.7382C12.9658 21.7382 14.3293 21.4349 15.6403 20.8803C16.9521 20.3253 18.0632 19.5678 19.0224 18.6086C19.9816 17.6494 20.739 16.5383 21.294 15.2265C21.8488 13.9152 22.152 12.5019 22.152 11.0871C22.152 9.62213 21.8487 8.25858 21.294 6.94761C20.739 5.63578 19.9816 4.52472 19.0224 3.56551C18.0632 2.6063 16.9521 1.84886 15.6403 1.29385C14.329 0.739063 12.9156 0.435937 11.5008 0.435937C10.0359 0.435937 8.67235 0.739214 7.36138 1.29385ZM4.52604 16.2613L4.55057 16.1888L4.50628 16.1264C3.42912 14.6086 2.8916 12.9467 2.8916 11.0871C2.8916 9.91483 3.13554 8.8392 3.57719 7.75961C4.01893 6.67979 4.60523 5.75379 5.38238 5.02522C6.16903 4.28773 7.04978 3.65248 8.12361 3.21319C9.2032 2.77154 10.2788 2.5276 11.4511 2.5276C12.6233 2.5276 13.6989 2.77154 14.7785 3.21319C15.8583 3.65493 16.7843 4.24122 17.5129 5.01838C18.2504 5.80503 18.8856 6.68577 19.3249 7.75961C19.7666 8.8392 20.0105 9.91483 20.0105 11.0871C20.0105 12.2593 19.7666 13.3349 19.3249 14.4145C18.8832 15.4943 18.2969 16.4203 17.5197 17.1489C16.7331 17.8864 15.8523 18.5216 14.7785 18.9609C13.6989 19.4026 12.6233 19.6465 11.4511 19.6465C9.78588 19.6465 8.17253 19.2059 6.75551 18.2775L6.69647 18.2389L6.62904 18.2597L3.52523 19.2182L4.52604 16.2613ZM17.031 13.7777C17.0288 13.7725 17.0274 13.7691 17.0258 13.7649V13.7391L17.01 13.7075C16.9931 13.6737 16.9682 13.6454 16.9465 13.6239C16.9232 13.6007 16.8951 13.577 16.8637 13.5529C16.8008 13.5046 16.7163 13.4486 16.6114 13.385C16.4011 13.2576 16.0985 13.0937 15.6987 12.8939C15.2999 12.6944 14.9864 12.544 14.7594 12.443C14.646 12.3927 14.5522 12.3538 14.4791 12.3272C14.4426 12.3139 14.4093 12.303 14.3802 12.2952C14.3537 12.2881 14.3204 12.2808 14.2879 12.2808C14.211 12.2808 14.1395 12.3118 14.0792 12.3486C14.0169 12.3866 13.9522 12.4395 13.8859 12.5025C13.7532 12.6285 13.5985 12.8098 13.4229 13.0355C13.251 13.2565 13.1112 13.4059 12.9963 13.4935C12.8793 13.5826 12.8151 13.5877 12.7814 13.5793L12.7635 13.5748H12.745C12.6878 13.5748 12.6218 13.5452 12.5135 13.4911C11.6238 13.0462 10.9434 12.6069 10.4622 12.1257C9.8695 11.5329 9.38785 10.9519 9.10052 10.2814L9.08914 10.2549L9.07259 10.2383C9.07101 10.2344 9.06888 10.2273 9.06706 10.2163C9.06363 10.1958 9.06301 10.1736 9.0629 10.1511C9.06457 10.1472 9.06842 10.139 9.07658 10.1257C9.0943 10.0967 9.12313 10.0581 9.16553 10.0066C9.21364 9.94821 9.27145 9.88232 9.33978 9.80444C9.39347 9.74323 9.45365 9.67463 9.52072 9.59644C9.69694 9.41984 9.82887 9.2626 9.91758 9.11929C10.0068 8.97513 10.0582 8.83556 10.0582 8.69818C10.0582 8.67503 10.0536 8.65066 10.0504 8.63522C10.0464 8.61593 10.0408 8.59278 10.0338 8.56635C10.0197 8.5133 9.99865 8.44226 9.97017 8.35367C9.91342 8.17711 9.82592 7.92716 9.70171 7.60399C9.60106 7.27751 9.50057 7.01383 9.41948 6.80799C9.40513 6.77156 9.39159 6.73742 9.3789 6.70541C9.3172 6.54979 9.27552 6.44466 9.25747 6.37245C9.20193 6.15029 9.09019 5.97587 9.01894 5.90462C8.93112 5.8168 8.78669 5.76115 8.5645 5.76115H8.56421H8.56391H8.56362H8.56332H8.56303H8.56273H8.56243H8.56213H8.56183H8.56153H8.56122H8.56092H8.56061H8.56031H8.56H8.55969H8.55938H8.55907H8.55875H8.55844H8.55813H8.55781H8.55749H8.55718H8.55686H8.55654H8.55622H8.55589H8.55557H8.55525H8.55492H8.5546H8.55427H8.55394H8.55361H8.55328H8.55295H8.55262H8.55228H8.55195H8.55161H8.55127H8.55094H8.5506H8.55026H8.54992H8.54957H8.54923H8.54889H8.54854H8.54819H8.54785H8.5475H8.54715H8.5468H8.54645H8.54609H8.54574H8.54539H8.54503H8.54467H8.54432H8.54396H8.5436H8.54324H8.54288H8.54252H8.54215H8.54179H8.54142H8.54106H8.54069H8.54032H8.53995H8.53958H8.53921H8.53884H8.53846H8.53809H8.53771H8.53734H8.53696H8.53658H8.5362H8.53582H8.53544H8.53506H8.53468H8.5343H8.53391H8.53352H8.53314H8.53275H8.53236H8.53197H8.53158H8.53119H8.5308H8.53041H8.53001H8.52962H8.52922H8.52883H8.52843H8.52803H8.52763H8.52723H8.52683H8.52643H8.52602H8.52562H8.52521H8.52481H8.5244H8.52399H8.52359H8.52318H8.52277H8.52236H8.52194H8.52153H8.52112H8.5207H8.52029H8.51987H8.51945H8.51904H8.51862H8.5182H8.51778H8.51736H8.51693H8.51651H8.51609H8.51566H8.51524H8.51481H8.51438H8.51396H8.51353H8.5131H8.51267H8.51224H8.5118H8.51137H8.51094H8.5105H8.51007H8.50963H8.50919H8.50876H8.50832H8.50788H8.50744H8.507H8.50655H8.50611H8.50567H8.50522H8.50478H8.50433H8.50389H8.50344H8.50299H8.50254H8.50209H8.50164H8.50119H8.50074H8.50029H8.49983H8.49938H8.49892H8.49847H8.49801H8.49755H8.4971H8.49664H8.49618H8.49572H8.49526H8.49479H8.49433H8.49387H8.49341H8.49294H8.49248H8.49201H8.49154H8.49108H8.49061H8.49014H8.48967H8.4892H8.48873H8.48825H8.48778H8.48731H8.48684H8.48636H8.48589H8.48541H8.48493H8.48446H8.48398H8.4835H8.48302H8.48254H8.48206H8.48158H8.48109H8.48061H8.48013H8.47964H8.47916H8.47867H8.47819H8.4777H8.47721H8.47673H8.47624H8.47575H8.47526H8.47477H8.47428H8.47378H8.47329H8.4728H8.4723H8.47181H8.47131H8.47082H8.47032H8.46983H8.46933H8.46883H8.46833H8.46783H8.46733H8.46683H8.46633H8.46583H8.46533H8.46482H8.46432H8.46382H8.46331H8.46281H8.4623H8.46179H8.46129H8.46078H8.46027H8.45976H8.45925H8.45874H8.45823H8.45772H8.45721H8.4567H8.45618H8.45567H8.45515H8.45464H8.45413H8.45361H8.45309H8.45258H8.45206H8.45154H8.45102H8.4505H8.44999H8.44947H8.44894H8.44842H8.4479H8.44738H8.44686H8.44633H8.44581H8.44529H8.44476H8.44424H8.44371H8.44319H8.44266H8.44213H8.4416H8.44108H8.44055H8.44002H8.43949H8.43896H8.43843H8.4379H8.43736H8.43683H8.4363H8.43577H8.43523H8.4347H8.43417H8.43363H8.4331H8.43256H8.43202H8.43149H8.43095H8.43041H8.42987H8.42934H8.4288H8.42826H8.42772H8.42718H8.42664H8.4261H8.42555H8.42501H8.42447H8.42393H8.42338H8.42284H8.4223H8.42175H8.42121H8.42066H8.42011H8.41957H8.41902H8.41847H8.41793H8.41738H8.41683H8.41628H8.41573H8.41518H8.41463H8.41408H8.41353H8.41298H8.41243H8.41188H8.41133H8.41078H8.41022H8.40967H8.40912H8.40856H8.40801H8.40745H8.4069H8.40634H8.40579H8.40523H8.40468H8.40412H8.40356H8.403H8.40245H8.40189H8.40133H8.40077H8.40021H8.39965H8.39909H8.39853H8.39797H8.39741H8.39685H8.39629H8.39573H8.39517H8.39461H8.39404H8.39348H8.39292H8.39235H8.39179H8.39123H8.39066H8.3901H8.38953H8.38897H8.3884H8.38784H8.38727H8.3867H8.38614H8.38557H8.385H8.38444H8.38387H8.3833H8.38273H8.38216H8.3816H8.38103H8.38046H8.37989H8.37932H8.37875H8.37818H8.37761H8.37704H8.37647H8.3759H8.37532H8.37475H8.37418H8.37361H8.37304H8.37246H8.37189H8.37132H8.37075H8.37017H8.3696H8.36902H8.36845H8.36788H8.3673H8.36673H8.36615H8.36558H8.365H8.36443H8.36385H8.36328H8.3627H8.36212H8.36155H8.36097H8.3604H8.35982H8.35924H8.35867H8.35809H8.35751H8.35693H8.35636H8.35578H8.3552H8.35462H8.35404H8.35346H8.35289H8.35231H8.35173H8.35115H8.35057H8.34999H8.34941H8.34883H8.34825H8.34767H8.34709H8.34651H8.34593H8.34535H8.34477H8.34419H8.34361H8.34303H8.34245H8.34187H8.34129H8.34071H8.34013H8.33954H8.33896H8.33838H8.3378H8.33722H8.33664H8.33605H8.33547H8.33489H8.33431H8.33373H8.33314H8.33256H8.33198H8.3314H8.33081H8.33023H8.32965H8.32907H8.32848H8.3279H8.32732H8.32674H8.32615H8.32557H8.32499H8.3244H8.32382H8.32324H8.32266H8.32207H8.32149H8.32091H8.32032H8.31974H8.31916H8.31857H8.31799H8.31741H8.31682H8.31624H8.31566H8.31507H8.31449H8.31391H8.31332H8.31274H8.31216H8.31157H8.31099H8.31041H8.30983H8.30924H8.30866H8.30808H8.30749H8.30691H8.30633H8.30574H8.30516H8.30458H8.304H8.30341H8.30283H8.30225H8.30166H8.30108H8.3005H8.29992H8.29934H8.29875H8.29817H8.29759H8.29701H8.29642H8.29584H8.29526H8.29468H8.2941H8.29352H8.29293H8.29235H8.29177H8.29119H8.29061H8.29003H8.28945H8.28887H8.28828H8.2877H8.28712H8.28654H8.28596H8.28538H8.2848H8.28422H8.28364H8.28306H8.28248H8.2819H8.28132H8.28074H8.28016H8.27959H8.27901H8.27843H8.27785H8.27727H8.27669H8.27611H8.27554H8.27496H8.27438H8.2738H8.27323H8.27265H8.27207H8.27149H8.27092H8.27034H8.26977H8.26919H8.26861H8.26804H8.26746H8.26689H8.26631H8.26574H8.26516H8.26459H8.26401H8.26344H8.26286H8.26229H8.26172H8.26114H8.26057H8.26H8.25942H8.25885H8.25828H8.25771H8.25713H8.25656H8.25599H8.25542H8.25485H8.25428H8.25371H8.25314H8.25257H8.252H8.25143H8.25086H8.25029H8.24972H8.24915H8.24858H8.24801H8.24745H8.24688H8.24631H8.24574H8.24518H8.24461H8.24404H8.24348H8.24291H8.24235H8.24178H8.24122H8.24065H8.24009H8.23952H8.23896H8.2384H8.23783H8.23727H8.23671H8.23615H8.23558H8.23502H8.23446H8.2339H8.23334H8.23278H8.23222H8.23166H8.2311H8.23054H8.22998H8.22942H8.22887H8.22831H8.22775H8.22719H8.22664H8.22608H8.22553H8.22497H8.22442H8.22386H8.22331H8.22275H8.2222H8.22164H8.22109H8.22054H8.21999H8.21943H8.21888H8.21833H8.21778H8.21723H8.21668H8.21613H8.21558H8.21503H8.21448H8.21393H8.21339H8.21284H8.21229H8.21175H8.2112H8.21065H8.21011H8.20956H8.20902H8.20848H8.20793H8.20739H8.20685H8.2063H8.20576H8.20522H8.20468H8.20414H8.2036H8.20306H8.20252H8.20198H8.20144H8.2009H8.20036H8.19983H8.19929H8.19875H8.19822H8.19768H8.19715H8.19661H8.19608H8.19555H8.19501H8.19448H8.19395H8.19342H8.19289H8.19236H8.19183H8.1913H8.19077H8.19024H8.18971H8.18918H8.18866H8.18813H8.1876H8.18708H8.18655H8.18603H8.1855H8.18498H8.18446H8.18393H8.18341H8.18289H8.18237H8.18185H8.18133H8.18081H8.18029H8.17977H8.17925H8.17874H8.17822H8.1777H8.17719H8.17667H8.17616H8.17565H8.17513H8.17462H8.17411H8.17359H8.17308H8.17257H8.17206H8.17155H8.17104H8.17054H8.17003H8.16952H8.16901H8.16851H8.168H8.1675H8.16699H8.16649H8.16599H8.16549H8.16498H8.16448H8.16398H8.16348H8.16298H8.16248H8.16199H8.16149H8.16099H8.16049H8.16H8.1595H8.15901H8.15852H8.15802H8.15753H8.15704H8.15655H8.15606H8.15557H8.15508H8.15459H8.1541H8.15361H8.15313H8.15264H8.15215H8.15167H8.15119H8.1507H8.15022H8.14974H8.14926H8.14878H8.14829H8.14782H8.14734H8.14686H8.14638H8.1459H8.14543H8.14495H8.14448H8.144H8.14353H8.14306H8.14259H8.14212H8.14165H8.14118H8.14071H8.14024H8.13977H8.1393H8.13884H8.13837H8.13791H8.13744H8.13698H8.13652H8.13606H8.1356H8.13514H8.13468H8.13422H8.13376H8.1333H8.13285H8.13239H8.13194H8.13148H8.13103H8.13057H8.13012H8.12967H8.12922H8.12877H8.12832H8.12787H8.12743H8.12698H8.12653H8.12609H8.12565H8.1252H8.12476H8.12432H8.12388H8.12344H8.123H8.12256H8.12212H8.12168H8.12125H8.12081H8.12038H8.11994H8.11951H8.11908H8.11865H8.11822H8.11779H8.11736H8.11693H8.1165H8.11608H8.11565H8.11523H8.1148H8.11438H8.11396H8.11354H8.11312H8.1127H8.11228H8.11186H8.11144H8.11103H8.11061H8.1102H8.10978H8.10937H8.10896H8.10855H8.10814H8.10773H8.10732H8.10691H8.1065H8.1061H8.10569H8.10529H8.10489H8.10449H8.10408H8.10368H8.10328H8.10289H8.10249H8.10209H8.1017H8.1013H8.10091H8.10051H8.10012H8.09973H8.09934H8.09895H8.09856H8.09818H8.09779H8.0974H8.09702H8.09664H8.09625H8.09587H8.09549H8.09511H8.09473H8.09435H8.09398H8.0936H8.09322H8.09285H8.09248H8.0921H8.09173H8.09136H8.09099H8.09063H8.09026H8.08989H8.08953H8.08916H8.0888H8.08844H8.08807H8.08771H8.08735H8.087H8.08664H8.08628H8.08593H8.08557H8.08522H8.08487H8.08452H8.08416H8.08382H8.08347H8.08312H8.08277H8.08243H8.08208H8.08174H8.0814H8.08106H8.08072H8.08038H8.08004H8.0797H8.07937H8.07903H8.0787H8.07837H8.07803H8.0777H8.07737H8.07705H8.07672H8.07639H8.07607H8.07574H8.07542H8.0751H8.07478H8.07446H8.07414H8.07382H8.0735H8.07319H8.07287H8.07256H8.07225H8.07194H8.07163H8.07132H8.07101H8.0707H8.0704H8.07009H8.06979H8.06949H8.06918H8.06888H8.06859H8.06829H8.06799H8.0677H8.0674H8.06711H8.06682C7.73313 5.76115 7.44675 5.87328 7.21839 6.09955C6.48881 6.72692 6.17706 7.5128 6.12541 8.39076L6.12515 8.39074V8.39957V8.49911C6.12515 9.33738 6.49092 10.2624 7.14475 11.2683L7.14475 11.2683L7.14571 11.2698C7.84744 12.3224 8.54933 13.1747 9.20111 13.8766C9.86333 14.5898 10.6769 15.1485 11.5892 15.554L11.5897 15.5542C12.2133 15.8286 12.7411 16.0424 13.1835 16.1877C13.6238 16.3324 13.9902 16.413 14.2879 16.413C14.7094 16.413 15.2301 16.3079 15.7485 16.0488C16.2591 15.7934 16.6448 15.474 16.8146 15.0778L16.8148 15.0779L16.8172 15.0714C16.9673 14.6712 17.0756 14.3011 17.0756 13.9736C17.0756 13.8966 17.0557 13.839 17.04 13.7997C17.0358 13.7892 17.033 13.7827 17.031 13.7777Z" fill="white" stroke="white" stroke-width="0.3"/>
</svg>
